<svg width="24" height="24" viewBox="0 0 24 24" fill="none" xmlns="http://www.w3.org/2000/svg">
<path d="M20.98 3.02003C20.5588 2.59433 20.0334 2.28634 19.4562 2.12669C18.879 1.96704 18.2701 1.9613 17.69 2.11003L7.88998 4.56003C7.08445 4.75953 6.34864 5.17508 5.76184 5.76188C5.17503 6.34869 4.75949 7.0845 4.55998 7.89003L2.10998 17.7C1.80998 18.89 2.14998 20.12 3.01998 20.99C3.67998 21.64 4.54998 22 5.44998 22C5.72998 22 6.01998 21.97 6.29998 21.89L16.11 19.44C16.9155 19.2405 17.6513 18.825 18.2381 18.2382C18.8249 17.6514 19.2405 16.9156 19.44 16.11L21.89 6.30003C22.19 5.11003 21.85 3.88003 20.98 3.02003V3.02003ZM12 15.88C9.85998 15.88 8.11998 14.14 8.11998 12C8.11998 9.86003 9.85998 8.12003 12 8.12003C14.14 8.12003 15.88 9.86003 15.88 12C15.88 14.14 14.14 15.88 12 15.88V15.88Z" fill="#828282"/>
</svg>
