<svg width="1080" height="1080" viewBox="0 0 1080 1080" fill="none" xmlns="http://www.w3.org/2000/svg">
<rect width="1080" height="1080" fill="#1f1f95"/>
<path d="M539.5 484.115C508.786 484.115 484.115 508.786 484.115 539.5C484.115 570.213 508.786 594.885 539.5 594.885C570.213 594.885 594.885 570.213 594.885 539.5C594.885 508.786 570.213 484.115 539.5 484.115ZM539.5 36C261.568 36 36 261.568 36 539.5C36 817.432 261.568 1043 539.5 1043C817.432 1043 1043 817.432 1043 539.5C1043 261.568 817.432 36 539.5 36ZM649.766 649.766L237.4 841.6L429.234 429.234L841.6 237.4L649.766 649.766Z" fill="#fff"/>
</svg>
