<svg width="1080" height="1080" viewBox="0 0 1080 1080" fill="none" xmlns="http://www.w3.org/2000/svg">
<rect width="1080" height="1080" fill="#1f1f95"/>
<path d="M931.479 514.31H1036C1036 246.204 833.591 44 565.119 44V148.525C777.409 148.525 931.479 302.333 931.479 514.31V514.31Z" fill="#fff"/>
<path d="M565.64 357.546C675.548 357.546 722.427 404.426 722.427 514.334H826.952C826.952 345.787 734.186 253.022 565.64 253.022V357.546ZM744.482 642.011C723.629 623.04 691.435 624.033 671.785 644.258L546.721 772.876C516.617 767.128 456.097 748.261 393.801 686.121C331.504 623.772 312.637 563.095 307.045 533.201L435.558 408.084C455.836 388.434 456.777 356.292 437.806 335.387L244.696 123.045C225.724 102.087 193.478 100.101 171.999 118.498L58.589 215.758C49.5476 224.852 44.1645 236.872 43.4328 249.677C42.6489 262.742 27.7018 572.241 267.691 812.335C477.055 1021.65 739.308 1036.96 811.535 1036.96C822.092 1036.96 828.572 1036.65 830.297 1036.54C843.101 1035.81 855.122 1030.43 864.163 1021.33L961.371 907.87C979.82 886.391 977.729 854.197 956.877 835.173L744.482 642.011Z" fill="#fff"/>
</svg>
